<svg version="1.1" id="Layer_1" xmlns="http://www.w3.org/2000/svg" xmlns:xlink="http://www.w3.org/1999/xlink" x="0px" y="0px" viewBox="0 0 207.3 207.3" style="enable-background:new 0 0 207.3 207.3;" xml:space="preserve" width="207.3"  height="207.3" >
<path class="st0" d="M103.7,0C46.4,0,0,46.4,0,103.7s46.4,103.7,103.7,103.7c57.3,0,103.7-46.4,103.7-103.7S160.9,0,103.7,0z
                        M142,148.3h-18.6l0-10.2c0,0-11.2,12.1-28.8,12.1c-23.2,0-43.7-20.4-43.7-46.5s20.5-46.5,43.7-46.5c17.7,0,28.8,12.1,28.8,12.1
                        l0-9.9H142L142,148.3z M160.6,150.2c-5.1,0-9.3-4.2-9.3-9.3c0-5.1,4.2-9.3,9.3-9.3s9.3,4.2,9.3,9.3
                        C169.8,146,165.7,150.2,160.6,150.2z" fill="#0F3951"></path>

<path class="st0" d="M96.5,74c-13.9,0-27,13-27,29.7c0,16.7,13,29.7,27,29.7c13.9,0,27-13,27-29.7C123.4,87,110.4,74,96.5,74z" fill="#0F3951"></path>

</svg>